<svg xmlns="http://www.w3.org/2000/svg" viewBox="0 0 30 34" enable-background="new 0 0 30 34"><path d="M30 22.499c0 1.1-.749 2.5-1.665 3.111l-11.67 7.78c-.916.61-2.414.61-3.33 0l-11.67-7.78c-.916-.611-1.665-2.01-1.665-3.111v-10.998c0-1.1.749-2.5 1.665-3.111l11.67-7.78c.916-.61 2.414-.61 3.33 0l11.67 7.78c.916.611 1.665 2.01 1.665 3.111v10.998z" fill="#C94E4B"/><g><path d="M28 15v-4h-3v-1h-1v-3h-4v1.5c0 .828-.672 1.5-1.5 1.5s-1.5-.672-1.5-1.5v-1.5h-4v1.5c0 .828-.672 1.5-1.5 1.5s-1.5-.672-1.5-1.5v-1.5h-4v3h-1v1h-3v4h1.5c.828 0 1.5.672 1.5 1.5s-.672 1.5-1.5 1.5h-1.5v4h3v1h1v3h4v-1.5c0-.828.672-1.5 1.5-1.5s1.5.672 1.5 1.5v1.5h4v-1.5c0-.828.672-1.5 1.5-1.5s1.5.672 1.5 1.5v1.5h4v-3h1v-1h3v-4h-1.5c-.828 0-1.5-.672-1.5-1.5s.672-1.5 1.5-1.5h1.5zm-4 7h-18v-11h18v11zM8 13h4v1h-4zM8 13h1v3h-1zM8 15h3v1h-3zM11 15h1v3h-1zM8 17h4v1h-4zM13 14h4v1h-4zM13 15h1v2h-1zM13 17h4v1h-4z" fill="#fff"/></g><path d="M15 1.152c.429 0 .834.106 1.11.29l11.67 7.78c.639.426 1.22 1.512 1.22 2.279v10.998c0 .767-.581 1.853-1.219 2.279l-11.67 7.78c-.276.184-.681.29-1.11.29s-.834-.106-1.11-.29l-11.67-7.78c-.64-.426-1.221-1.512-1.221-2.279v-10.998c0-.767.581-1.853 1.219-2.279l11.67-7.78c.277-.184.682-.29 1.111-.29m0-1c-.603 0-1.207.153-1.665.458l-11.67 7.78c-.916.611-1.665 2.01-1.665 3.111v10.998c0 1.1.749 2.5 1.665 3.111l11.67 7.78c.458.305 1.061.458 1.665.458s1.207-.153 1.665-.458l11.67-7.78c.916-.611 1.665-2.01 1.665-3.111v-10.998c0-1.1-.749-2.5-1.665-3.111l-11.67-7.78c-.458-.305-1.062-.458-1.665-.458z" fill="#C94E4B"/><g><path d="M26.633 27.356v-2.893c0-1.726-1.141-2.499-2.271-2.499-.849 0-1.533.398-2.153 1.253l-3.043 4.145c-.347.488-.518.986-.518 1.491 0 1.027.772 2.067 2.248 2.067h1.88c.124 1.218 1.06 1.776 1.934 1.776.91 0 1.83-.632 1.927-1.843.932-.23 1.363-1.013 1.363-1.748 0-.736-.432-1.52-1.367-1.749" fill="#C94E4B"/><path d="M23.018 23.804c.54-.744.984-.84 1.344-.84.408 0 1.271.192 1.271 1.499v3.826h.42c.839 0 .947.564.947.816s-.108.815-.947.815h-.408v.72c0 .899-.636 1.055-.935 1.055-.312 0-.948-.156-.948-1.055v-.72h-2.866c-1.068 0-1.248-.743-1.248-1.067 0-.228.06-.528.324-.9l3.046-4.149zm.756 1.619h-.036l-2.015 2.866h2.051v-2.866z" fill="#fff"/></g></svg>