<svg xmlns="http://www.w3.org/2000/svg" xmlns:xlink="http://www.w3.org/1999/xlink" viewBox="0 0 30 33.7"><defs><style>.cls-1{fill:#4d4d4d;}.cls-2{fill:#fff;}.cls-3{stroke:#4d4d4d;stroke-linejoin:round;stroke-width:0.6px;fill:url(#linear-gradient);}</style><linearGradient id="linear-gradient" x1="10.03" y1="17.91" x2="22.22" y2="17.91" gradientTransform="matrix(1, 0, 0, 1, 0, 0)" gradientUnits="userSpaceOnUse"><stop offset="0.3" stop-color="#c3922e"/><stop offset="0.8" stop-color="#ebbb10"/><stop offset="1" stop-color="#eed688"/></linearGradient></defs><title>AuthorBadge-WPHeroSml</title><g id="Layer_2" data-name="Layer 2"><g id="Large"><path class="cls-1" d="M30,22.35a4.19,4.19,0,0,1-1.66,3.11L16.66,33.24a3.26,3.26,0,0,1-3.33,0L1.66,25.46A4.19,4.19,0,0,1,0,22.35v-11A4.19,4.19,0,0,1,1.66,8.24L13.34.46a3.26,3.26,0,0,1,3.33,0L28.34,8.24A4.19,4.19,0,0,1,30,11.35Z"/><path class="cls-2" d="M22.56,17.13V20.4H20.65V11.12h3.62a4.19,4.19,0,0,1,1.84.38,2.82,2.82,0,0,1,1.22,1.09,3,3,0,0,1,.43,1.6,2.66,2.66,0,0,1-.93,2.15,3.89,3.89,0,0,1-2.58.79Zm0-1.55h1.71a1.68,1.68,0,0,0,1.16-.36,1.3,1.3,0,0,0,.4-1,1.53,1.53,0,0,0-.4-1.1,1.5,1.5,0,0,0-1.11-.43H22.56Z"/><path class="cls-2" d="M10,17.73l1.25-6.6h1.9L11.1,20.4H9.17L7.66,14.2,6.15,20.4H4.23L2.17,11.13h1.9l1.26,6.59,1.53-6.59H8.48Z"/><path class="cls-3" d="M17.93,15.6h4.29L10,30.1l4.3-9.87H10L22.22,5.72Z"/></g></g></svg>